# xmcd
#
# Track frame offsets: 
#        150
#        19625
#        41745
#        69047
#        86965
#        108797
#        131890
#        161160
#        185252
#        209440
#        233985
#        252077
#        276700
#        295630
#
# Disc length: 4225 seconds
#
# Revision: 3
# Processed by: cddbd v1.5.2PL0 Copyright (c) Steve Scherf et al.
# Submitted via: ExactAudioCopy v1.1
#
DISCID=cb107f0e
DTITLE=TMN - STAR BOX
DYEAR=1999
DGENRE=JPop
TTITLE0=TIME TO COUNT DOWN
TTITLE1=６９／９９
TTITLE2=RHYTHM RED BEAT BLACK
TTITLE3=SECRET RHYTHM
TTITLE4=REASONLESS
TTITLE5=LOOKING AT YOU
TTITLE6=THE POINT OF LOVERS' NIGHT
TTITLE7=WILD HEAVEN
TTITLE8=WE LOVE THE EARTH
TTITLE9=LOVE TRAIN
TTITLE10=大地の物語
TTITLE11=月はピアノに誘われて
TTITLE12=一途な恋
TTITLE13=ANOTHER MEETING
EXTD=YEAR: 1999
EXTT0=
EXTT1=
EXTT2=
EXTT3=
EXTT4=
EXTT5=
EXTT6=
EXTT7=
EXTT8=
EXTT9=
EXTT10=
EXTT11=
EXTT12=
EXTT13=
PLAYORDER=
